<?xml version="1.0" encoding="UTF-8" standalone="no"?>
<!-- Uploaded to: SVG Repo, www.svgrepo.com, Generator: SVG Repo Mixer Tools -->

<svg
   aria-label="Minecraft"
   role="img"
   viewBox="0 0 512 512"
   stroke-linecap="square"
   fill="none"
   version="1.1"
   id="svg12"
   sodipodi:docname="minecraft-svgrepo-com.svg"
   inkscape:version="1.3 (0e150ed6c4, 2023-07-21)"
   xmlns:inkscape="http://www.inkscape.org/namespaces/inkscape"
   xmlns:sodipodi="http://sodipodi.sourceforge.net/DTD/sodipodi-0.dtd"
   xmlns:xlink="http://www.w3.org/1999/xlink"
   xmlns="http://www.w3.org/2000/svg"
   xmlns:svg="http://www.w3.org/2000/svg">
  <defs
     id="defs12" />
  <sodipodi:namedview
     id="namedview12"
     pagecolor="#ffffff"
     bordercolor="#000000"
     borderopacity="0.25"
     inkscape:showpageshadow="2"
     inkscape:pageopacity="0.0"
     inkscape:pagecheckerboard="0"
     inkscape:deskcolor="#d1d1d1"
     inkscape:zoom="1.4294918"
     inkscape:cx="270.37582"
     inkscape:cy="232.60015"
     inkscape:window-width="1920"
     inkscape:window-height="1011"
     inkscape:window-x="0"
     inkscape:window-y="32"
     inkscape:window-maximized="1"
     inkscape:current-layer="svg12" />
  <rect
     width="512"
     height="512"
     rx="64"
     fill="#111"
     id="rect1"
     style="fill:#f9fbf9;fill-opacity:1"
     x="0"
     y="0" />
  <g
     id="a"
     transform="matrix(19 11 0 22 76 142)">
    <path
       fill="#432"
       d="M.5.5h9v9h-9"
       id="path1" />
    <path
       stroke="#864"
       d="M2 8v1h2V8h5V7 H7V5"
       id="path2" />
    <path
       stroke="#643"
       d="M1 5zM2 9zM1 8V7h2V6h1M5 9h2V8H6V4M7 6h1v1M9 9zM9 4v1"
       id="path3" />
    <path
       stroke="#a75"
       d="M1 7h1M4 7h1M9 6z"
       id="path4" />
    <path
       stroke="#555"
       d="M5 5z"
       id="path5" />
    <path
       stroke="#593"
       d="M4 4V1h4v2H7V2H4v1H2v1"
       id="path6" />
    <path
       stroke="#6a4"
       d="M2 1h1M6 1zM7 2zM9 1v1"
       id="path7" />
    <path
       stroke="#7c5"
       d="M5 3zM3 2h1"
       id="path8" />
    <path
       stroke="#9c6"
       d="M1 1v1h1M8 1z"
       id="path9" />
  </g>
  <use
     xlink:href="#a"
     transform="matrix(-1 0 0 1 513 0)"
     opacity=".5"
     id="use9"
     style="opacity:1" />
  <g
     transform="matrix(-19,11,-19,-11,446.5,158.5)"
     id="g12">
    <path
       fill="#77bb44"
       d="m 0.5,0.5 h 9 v 9 h -9"
       id="path10" />
    <path
       stroke="#88cc55"
       d="M 1,1 Z M 3,1 Z M 4,7 Z M 3,4 V 6 H 1 V 8 H 4 V 9 H 6 V 7 M 2,3 H 6 V 1 H 5 V 2 H 8 M 7,4 V 5 H 4 M 9,4 V 6 H 8 v 3"
       id="path11" />
    <path
       stroke="#aadd77"
       d="M 1,3 V 5 M 1,7 Z M 1,9 Z M 3,3 Z M 4,4 Z M 5,1 Z M 5,3 Z M 5,5 V 6 M 5,8 V 9 M 7,2 v 1 m 1,4 h 1"
       id="path12" />
  </g>
  <path
     style="opacity:0.4;fill:#111111;fill-opacity:1;stroke-width:2;stroke-linejoin:round;stroke-miterlimit:0;paint-order:fill markers stroke"
     d="m 256.5,257.5 171,-99 v 198 l -171,99 z"
     id="path13" />
</svg>
