<?xml version="1.0" encoding="UTF-8" standalone="no"?>
<!-- Uploaded to: SVG Repo, www.svgrepo.com, Generator: SVG Repo Mixer Tools -->

<svg
   aria-label="Minecraft"
   role="img"
   viewBox="0 0 512 512"
   stroke-linecap="square"
   fill="none"
   version="1.1"
   id="svg12"
   sodipodi:docname="minecraft-svgrepo-com.svg"
   inkscape:version="1.3 (0e150ed6c4, 2023-07-21)"
   inkscape:export-filename="minecraft-svgrepo-com.png"
   inkscape:export-xdpi="384"
   inkscape:export-ydpi="384"
   xmlns:inkscape="http://www.inkscape.org/namespaces/inkscape"
   xmlns:sodipodi="http://sodipodi.sourceforge.net/DTD/sodipodi-0.dtd"
   xmlns="http://www.w3.org/2000/svg"
   xmlns:svg="http://www.w3.org/2000/svg">
  <defs
     id="defs12" />
  <sodipodi:namedview
     id="namedview12"
     pagecolor="#ffffff"
     bordercolor="#000000"
     borderopacity="0.25"
     inkscape:showpageshadow="2"
     inkscape:pageopacity="0.0"
     inkscape:pagecheckerboard="0"
     inkscape:deskcolor="#d1d1d1"
     inkscape:zoom="1.5722656"
     inkscape:cx="283.66708"
     inkscape:cy="279.53292"
     inkscape:window-width="1920"
     inkscape:window-height="1011"
     inkscape:window-x="0"
     inkscape:window-y="32"
     inkscape:window-maximized="1"
     inkscape:current-layer="svg12" />
  <rect
     width="512"
     height="512"
     rx="15%"
     fill="#111"
     id="rect1" />
  <g
     id="a"
     transform="matrix(19 11 0 22 76 142)">
    <path
       fill="#432"
       d="M.5.5h9v9h-9"
       id="path1" />
    <path
       style="color:#000000;fill:#886644;-inkscape-stroke:none"
       d="M 6.5,4.5 V 5 7.5 h -3 v 1 h -1 V 8 7.5 h -1 V 8 9.5 h 3 v -1 h 5 v -2 h -2 V 5 4.5 Z"
       id="path2" />
    <path
       style="color:#000000;fill:#664433;-inkscape-stroke:none"
       d="M 5.5,3.5 V 4 8.5 H 5 4.5 v 1 H 5 7.5 v -2 h -1 v -1 H 7 7.5 V 7 7.5 h 1 V 7 5.5 H 7 6.5 V 4 3.5 Z m 3,2 h 1 V 5 4 3.5 h -1 V 4 5 Z m -6,0 v 1 h -2 V 8 8.5 h 1 V 8 7.5 h 2 v -1 H 4 4.5 v -1 H 4 Z"
       id="path3" />
    <path
       style="color:#000000;fill:#aa7755;-inkscape-stroke:none"
       d="m 0.5,6.5 v 1 H 1 2 2.5 v -1 H 2 1 Z m 3,0 v 1 H 4 5 5.5 v -1 H 5 4 Z"
       id="path4" />
    <path
       stroke="#555"
       d="M5 5z"
       id="path5" />
    <path
       style="color:#000000;fill:#559933;-inkscape-stroke:none"
       d="m 3.5,0.5 v 1 1 h -2 V 4 4.5 h 1 V 4 3.5 h 1 V 4 4.5 h 1 V 4 3.5 2.5 h 2 v 1 h 2 v -3 z"
       id="path6" />
    <path
       style="color:#000000;fill:#66aa44;-inkscape-stroke:none"
       d="m 1.5,0.5 v 1 H 2 3 3.5 v -1 H 3 2 Z m 7,0 V 1 2 2.5 h 1 V 2 1 0.5 Z"
       id="path7" />
    <path
       style="color:#000000;fill:#77cc55;-inkscape-stroke:none"
       d="m 2.5,1.5 v 1 H 3 4 4.5 v -1 H 4 3 Z"
       id="path8" />
    <path
       style="color:#000000;fill:#99cc66;-inkscape-stroke:none"
       d="M 0.5,0.5 V 1 2.5 H 2 2.5 v -1 H 2 1.5 V 1 0.5 Z"
       id="path9" />
  </g>
  <g
     id="use9"
     transform="matrix(-19,11,0,22,437,142)"
     style="opacity:1">
    <path
       fill="#443322"
       d="m 0.5,0.5 h 9 v 9 h -9"
       id="path15" />
    <path
       style="color:#000000;fill:#886644;-inkscape-stroke:none"
       d="M 6.5,4.5 V 5 7.5 h -3 v 1 h -1 V 8 7.5 h -1 V 8 9.5 h 3 v -1 h 5 v -2 h -2 V 5 4.5 Z"
       id="path16" />
    <path
       style="color:#000000;fill:#664433;-inkscape-stroke:none"
       d="M 5.5,3.5 V 4 8.5 H 5 4.5 v 1 H 5 7.5 v -2 h -1 v -1 H 7 7.5 V 7 7.5 h 1 V 7 5.5 H 7 6.5 V 4 3.5 Z m 3,2 h 1 V 5 4 3.5 h -1 V 4 5 Z m -6,0 v 1 h -2 V 8 8.5 h 1 V 8 7.5 h 2 v -1 H 4 4.5 v -1 H 4 Z"
       id="path17" />
    <path
       style="color:#000000;fill:#aa7755;-inkscape-stroke:none"
       d="m 0.5,6.5 v 1 H 1 2 2.5 v -1 H 2 1 Z m 3,0 v 1 H 4 5 5.5 v -1 H 5 4 Z"
       id="path18" />
    <path
       stroke="#555555"
       d="M 5,5 Z"
       id="path19" />
    <path
       style="color:#000000;fill:#559933;-inkscape-stroke:none"
       d="m 3.5,0.5 v 1 1 h -2 V 4 4.5 h 1 V 4 3.5 h 1 V 4 4.5 h 1 V 4 3.5 2.5 h 2 v 1 h 2 v -3 z"
       id="path20" />
    <path
       style="color:#000000;fill:#66aa44;-inkscape-stroke:none"
       d="m 1.5,0.5 v 1 H 2 3 3.5 v -1 H 3 2 Z m 7,0 V 1 2 2.5 h 1 V 2 1 0.5 Z"
       id="path21" />
    <path
       style="color:#000000;fill:#77cc55;-inkscape-stroke:none"
       d="m 2.5,1.5 v 1 H 3 4 4.5 v -1 H 4 3 Z"
       id="path22" />
    <path
       style="color:#000000;fill:#99cc66;-inkscape-stroke:none"
       d="M 0.5,0.5 V 1 2.5 H 2 2.5 v -1 H 2 1.5 V 1 0.5 Z"
       id="path23" />
  </g>
  <g
     transform="matrix(-19,11,-19,-11,446.5,158.5)"
     id="g12">
    <path
       fill="#77bb44"
       d="m 0.5,0.5 h 9 v 9 h -9"
       id="path10" />
    <path
       style="color:#000000;fill:#88cc55;-inkscape-stroke:none"
       d="m 4.5,0.5 v 2 H 2 1.5 v 1 H 2 2.5 V 4 5.5 h -2 v 3 h 3 v 1 h 3 V 7 6.5 h -1 V 7 8.5 h -1 v -1 h -3 v -1 h 2 v -1 H 4 7.5 V 4 3.5 h -1 V 4 4.5 H 4 3.5 V 4 3.5 h 3 v -1 H 8 8.5 v -1 H 8 6.5 v -1 z m 3,5 V 9 9.5 h 1 V 9 6.5 h 1 V 4 3.5 h -1 V 4 5.5 Z"
       id="path11" />
    <path
       style="color:#000000;fill:#aadd77;-inkscape-stroke:none"
       d="M 6.5,1.5 V 2 3 3.5 h 1 V 3 2 1.5 Z m -6,1 V 3 5 5.5 h 1 V 5 3 2.5 Z m 4,2 V 5 6 6.5 h 1 V 6 5 4.5 Z m 3,2 v 1 H 8 9 9.5 v -1 H 9 8 Z m -3,1 V 8 9 9.5 h 1 V 9 8 7.5 Z"
       id="path12" />
  </g>
  <path
     style="opacity:0.5;fill:#111111;fill-opacity:1;stroke-width:2;stroke-linejoin:round;stroke-miterlimit:0;paint-order:fill markers stroke"
     d="m 256.5,257.5 v 198 l 171,-99 v -198 z"
     id="path44"
     sodipodi:insensitive="true" />
  <path
     style="fill:#111111;fill-opacity:1;stroke-width:2;stroke-linejoin:round;stroke-miterlimit:0;paint-order:fill markers stroke"
     d="m 275.5,290.5 v 66 l -19,11 v 44 l 76,-44 v -110 z"
     id="path26"
     sodipodi:nodetypes="ccccccc" />
  <path
     style="fill:#111111;fill-opacity:1;stroke-width:2;stroke-linejoin:round;stroke-miterlimit:0;paint-order:fill markers stroke"
     d="m 370.5,235.5 57,-33 v 110 l -57,33 z"
     id="path27"
     sodipodi:nodetypes="ccccc" />
  <path
     style="display:inline;fill:#111111;fill-opacity:1;stroke-width:2;stroke-linejoin:round;stroke-miterlimit:0;paint-order:fill markers stroke"
     d="m 218.5,279.5 -133,-77 v 44 l 133,77 z"
     id="path28"
     inkscape:label="2Top" />
  <path
     style="display:inline;fill:#111111;fill-opacity:1;stroke-width:2;stroke-linejoin:round;stroke-miterlimit:0;paint-order:fill markers stroke"
     d="m 256.5,367.5 -133,-77 v 44 l 133,77 z"
     id="path29"
     inkscape:label="2Bottom" />
  <path
     style="color:#000000;display:inline;fill:#443322;stroke-width:20.445;-inkscape-stroke:none;fill-opacity:1"
     d="m 199.5,290.5 -95,-55 -19,11 95,55 z"
     id="path31"
     sodipodi:nodetypes="ccccc"
     inkscape:label="2Top3D1" />
  <path
     style="color:#000000;display:inline;fill:#664433;fill-opacity:1;stroke-width:20.445;-inkscape-stroke:none"
     d="m 218.5,301.5 -19,-11 -19,11 19,11 z"
     id="path32"
     sodipodi:nodetypes="ccccc"
     inkscape:label="2Top3D2" />
  <path
     style="color:#000000;display:inline;fill:#886644;fill-opacity:1;stroke-width:20.445;-inkscape-stroke:none"
     d="m 218.5,301.5 -19,11 19,11 z"
     id="path33"
     sodipodi:nodetypes="cccc"
     inkscape:label="2Top3D3" />
  <path
     style="fill:#111111;fill-opacity:1;stroke-width:2;stroke-linejoin:round;stroke-miterlimit:0;paint-order:fill markers stroke;opacity:0.25"
     d="m 104.5,235.5 -19,11 133,77 v -22 z"
     id="path34"
     inkscape:label="2ShadowTop" />
  <path
     style="color:#000000;display:inline;fill:#443322;fill-opacity:1;stroke-width:20.445;-inkscape-stroke:none"
     d="m 161.5,334.5 -19,-11 -19,11 19,11 z"
     id="path35"
     sodipodi:nodetypes="ccccc"
     inkscape:label="2Top3D1" />
  <path
     style="color:#000000;display:inline;fill:#886644;fill-opacity:1;stroke-width:20.445;-inkscape-stroke:none"
     d="m 199.5,356.5 -38,-22 -19,11 38,22 z"
     id="path36"
     sodipodi:nodetypes="ccccc"
     inkscape:label="2Top3D1" />
  <path
     style="color:#000000;display:inline;fill:#664433;fill-opacity:1;stroke-width:20.445;-inkscape-stroke:none"
     d="m 237.5,378.5 -38,-22 -19,11 38,22 z"
     id="path37"
     sodipodi:nodetypes="ccccc"
     inkscape:label="2Top3D1" />
  <path
     id="path38"
     style="color:#000000;display:inline;fill:#886644;fill-opacity:1;stroke-width:20.445;-inkscape-stroke:none"
     inkscape:label="2Top3D1"
     d="M 237.5 378.5 L 218.5 389.5 L 237.5 400.5 L 256.5 411.5 L 275.5 400.5 L 294.5 389.5 L 275.5 378.5 L 256.5 389.5 L 237.5 378.5 z " />
  <path
     style="color:#000000;display:inline;fill:#664433;fill-opacity:1;stroke-width:20.445;-inkscape-stroke:none"
     d="m 275.5,378.5 38,-22 19,11 -38,22 z"
     id="path39"
     sodipodi:nodetypes="ccccc"
     inkscape:label="2Top3D1" />
  <path
     style="fill:#aa7755;fill-opacity:1;stroke-width:2;stroke-linejoin:round;stroke-miterlimit:0;paint-order:fill markers stroke"
     d="m 123.5,334.5 v -22 l 19.02624,-10.98481 v 22 z"
     id="path40" />
  <path
     style="opacity:1;fill:#443322;fill-opacity:1;stroke-width:2;stroke-linejoin:round;stroke-miterlimit:0;paint-order:fill markers stroke"
     d="M 142.52624,301.51519 123.5,290.5 v 22 z"
     id="path41" />
  <path
     style="opacity:0.5;fill:#111111;fill-opacity:1;stroke-width:2;stroke-linejoin:round;stroke-miterlimit:0;paint-order:fill markers stroke"
     d="M 142.52624,301.51519 123.5,290.5 v 44 l 19.02624,-10.98481 z"
     id="path42" />
  <path
     style="opacity:0.25;fill:#111111;fill-opacity:1;stroke-width:2;stroke-linejoin:round;stroke-miterlimit:0;paint-order:fill markers stroke"
     d="m 142.5,323.5 -19,11 133,77 76,-44 -19,-11 -57,33 z"
     id="path43"
     inkscape:label="2ShadowTop"
     sodipodi:nodetypes="ccccccc" />
  <path
     style="opacity:1;fill:#aa7755;fill-opacity:1;stroke-width:2;stroke-linejoin:round;stroke-miterlimit:0;paint-order:fill markers stroke"
     d="m 332.5,367.5 v -22 l -19.02624,-10.98481 v 22 z"
     id="path45" />
  <path
     style="opacity:1;fill:#443322;fill-opacity:1;stroke-width:2;stroke-linejoin:round;stroke-miterlimit:0;paint-order:fill markers stroke"
     d="M 332.5,345.5 313.47376,334.51519 313.5,268.5 l 19,-11 z"
     id="path46" />
  <path
     style="opacity:0.2;fill:#111111;fill-opacity:1;stroke-width:2;stroke-linejoin:round;stroke-miterlimit:0;paint-order:fill markers stroke"
     d="m 332.5,367.5 -19,-11 v -88 l 19,-11 z"
     id="path47" />
  <path
     style="opacity:1;fill:#443322;fill-opacity:1;stroke-width:2;stroke-linejoin:round;stroke-miterlimit:0;paint-order:fill markers stroke"
     d="m 389.5,334.5 -19,-11 v 22 z"
     id="path48" />
  <path
     style="opacity:1;fill:#886644;fill-opacity:1;stroke-width:2;stroke-linejoin:round;stroke-miterlimit:0;paint-order:fill markers stroke"
     d="m 389.5,334.5 19,-11 -19,-11 -19,11 z"
     id="path49" />
  <path
     style="opacity:1;fill:#664433;fill-opacity:1;stroke-width:2;stroke-linejoin:round;stroke-miterlimit:0;paint-order:fill markers stroke"
     d="m 408.5,323.5 19,-11 -19,-11 -19,11 z"
     id="path50" />
  <path
     style="opacity:0.6;fill:#111111;fill-opacity:1;stroke-width:2;stroke-linejoin:round;stroke-miterlimit:0;paint-order:fill markers stroke"
     d="m 370.5,345.5 57,-33 -19,-11 -38,22 z"
     id="path51" />
</svg>
